<svg width="110" height="135" xmlns="http://www.w3.org/2000/svg" version="1.1">

 <g>
  <title>Layer 1</title>
  <g id="svg_1">
   <path fill="#ffffff" id="svg_2" d="m55.984,61.547c0,-3.3047 -2.6797,-5.9844 -5.9844,-5.9844c-0.82422,0 -1.6133,0.16797 -2.3281,0.46875c0.08203,-0.00781 0.16797,-0.01172 0.25391,-0.01172c1.4297,0 2.5859,1.1562 2.5859,2.5859c0,1.4297 -1.1562,2.5859 -2.5859,2.5859c-1.4297,0 -2.5859,-1.1562 -2.5859,-2.5859c0,-0.39453 0.08984,-0.76562 0.24609,-1.0977c-0.97266,1.0625 -1.5664,2.4805 -1.5664,4.0352c0,3.3047 2.6797,5.9844 5.9844,5.9844c3.3008,0.00391 5.9805,-2.6758 5.9805,-5.9805l-0.0001,0.00007z"/>
   <path fill="#ffffff" id="svg_3" d="m50.004,14.574l-0.00391,0.00391s0,-0.00391 -0.0039,-0.00391l0,0.00781c-13.609,23.641 -27.172,47.199 -40.785,70.844l40.785,0l0.0039,0l40.785,0c-13.613,-23.645 -27.176,-47.203 -40.785,-70.84l0.00391,-0.01181zm24.844,49.77c3.4023,5.9844 6.7539,11.875 10.141,17.832l-34.984,0l-0.00391,0l-34.984,0c3.3867,-5.957 6.7383,-11.848 10.141,-17.832c0.20703,0.23828 0.35938,0.40625 0.50391,0.57812c2.8281,3.3438 5.8438,6.5 9.5078,8.9492c3.793,2.5312 7.9062,4.2852 12.477,4.7461c0.79297,0.07812 1.5742,0.11328 2.3516,0.11328l0.00391,0l0.00391,0c0.77734,0 1.5586,-0.03125 2.3516,-0.11328c4.5664,-0.46094 8.6836,-2.2148 12.477,-4.7461c3.668,-2.4492 6.6797,-5.6055 9.5078,-8.9492c0.14453,-0.17188 0.29688,-0.33984 0.50781,-0.57812l-0.00243,0zm-30.328,7.3711c1.6914,0.96484 3.5859,1.4219 5.4766,1.418l0.00391,0l0.0039,0c1.8906,0.00391 3.7852,-0.45312 5.4766,-1.418c6.3164,-3.6094 7.3984,-9.0703 4.9531,-15.562c3.8906,2.0898 7.4062,4.7148 10.645,7.8281c-0.20312,0.23828 -0.37109,0.44141 -0.54297,0.63672c-3.2891,3.7422 -6.9844,6.9531 -11.559,9.0664c-2.9648,1.3633 -5.9531,2.0625 -8.9766,2.0586c-3.0234,0.00391 -6.0117,-0.69531 -8.9766,-2.0625c-4.5742,-2.1133 -8.2695,-5.3242 -11.559,-9.0664c-0.17188,-0.19531 -0.33984,-0.39453 -0.54297,-0.63672c3.2383,-3.1094 6.7539,-5.7383 10.645,-7.8281c-2.4414,6.5 -1.3594,11.957 4.9531,15.566l-0.00007,-0.0001zm5.4805,-1.5898l-0.00391,0l-0.09375,0c-4.7344,0 -8.5977,-3.8594 -8.5859,-8.7266c0.00782,-4.2148 3.1875,-8.4141 8.6836,-8.4492c5.4961,0.03125 8.6758,4.2305 8.6836,8.4492c0.01172,4.8672 -3.8516,8.7266 -8.5859,8.7266l-0.09375,0l-0.0039,0l-0.00009,0zm19.906,-14.117c1.2031,1.8125 2.2461,3.7344 3.3516,5.6094c-0.01953,0.02734 -0.03906,0.05469 -0.05859,0.08203c-0.85156,-0.70703 -1.7109,-1.4023 -2.5508,-2.1172c-3.75,-3.1914 -7.8203,-5.8594 -12.434,-7.6484c-2.2031,-0.85547 -4.457,-1.5273 -6.8164,-1.7188c-0.46875,-0.03906 -0.92969,-0.05078 -1.3906,-0.05078l-0.00391,0l-0.0039,0c-0.46094,0 -0.92579,0.01172 -1.3906,0.05078c-2.3594,0.1875 -4.6133,0.86328 -6.8164,1.7188c-4.61331,1.7891 -8.6836,4.457 -12.434,7.6484c-0.83984,0.71484 -1.7031,1.4102 -2.5508,2.1172c-0.01954,-0.02734 -0.03907,-0.05469 -0.0586,-0.08203c1.1055,-1.8789 2.1484,-3.7969 3.3516,-5.6094c0.47656,-0.71875 1.2695,-1.2461 1.9766,-1.7852c3.8594,-2.9492 8.0859,-5.1523 12.879,-6.1523c1.6953,-0.35547 3.3789,-0.52344 5.043,-0.52344s3.3477,0.16797 5.0469,0.52344c4.7969,1 9.0195,3.1992 12.879,6.1523c0.70703,0.53906 1.5039,1.0664 1.9805,1.7852l0.0004,0zm-19.887,-34.555c5.4609,9.4297 10.816,18.676 16.246,28.043c-5.4336,-3.25 -10.848,-4.8867 -16.262,-4.8945l-0.00391,0l-0.0039,0c-5.4141,0.00781 -10.828,1.6445 -16.262,4.8945c5.4297,-9.3711 10.785,-18.617 16.246,-28.043c0.00781,0.01172 0.01172,0.01953 0.01953,0.03125l0,0.00781l0,-0.0039s0,0.0039 0.0039,0.0039l0,-0.00781c0.00391,-0.01172 0.01172,-0.02344 0.01563,-0.03125l0.00075,0z"/>
  </g>
 </g>
</svg>