<svg xmlns="http://www.w3.org/2000/svg" version="1.1" viewBox="-5.0 -10.0 110.0 135.0">
 <path d="m25.781 52.344v29.688h-7.8125v-29.688z"/>
 <path d="m35.156 52.344v29.688h-7.8125v-29.688z"/>
 <path d="m44.531 52.344v29.688h-7.8125v-29.688z"/>
 <path d="m53.906 52.344v29.688h-7.8125v-29.688z"/>
 <path d="m63.281 52.344v29.688h-7.8125v-29.688z"/>
 <path d="m72.656 52.344v29.688h-7.8125v-29.688z"/>
 <path d="m82.031 52.344v29.688h-7.8125v-29.688z"/>
 <path d="m56.25 7.8125c0.86328 0 1.5625 0.69922 1.5625 1.5625v4.6875c0 0.86328-0.69922 1.5625-1.5625 1.5625h-4.6875l0.007812 0.14062c0.039063 0.33984 0.21094 0.72266 0.58594 1.1836 0.43359 0.53516 1.0352 1.0469 1.7109 1.5781 1.4492 1.1406 2.3828 2.918 2.3828 4.9102 0 1.8359-0.78906 3.4844-2.0508 4.6289l36.988 14.227c0.007812 0 0.011719 0.003906 0.019531 0.007812 0.027344 0.007813 0.054688 0.023438 0.082031 0.035157 0.023438 0.011718 0.046876 0.023437 0.066407 0.03125 0.015625 0.007812 0.027343 0.015624 0.042969 0.023437 0.03125 0.019531 0.0625 0.039063 0.09375 0.058594 0.007812 0.003906 0.011718 0.011719 0.019531 0.015625 0.20312 0.14062 0.36719 0.32422 0.48047 0.53125 0.039062 0.070312 0.070312 0.14062 0.097656 0.21484 0.007812 0.019531 0.015625 0.039062 0.023437 0.0625 0.003907 0.011718 0.007813 0.027343 0.011719 0.039062 0.023438 0.085938 0.042969 0.17188 0.050781 0.26172 0.003907 0.015625 0.003907 0.035156 0.003907 0.050781 0.003906 0.039062 0.007812 0.078125 0.007812 0.11719v0.007812 46.875c0 0.86328-0.69922 1.5625-1.5625 1.5625h-81.25c-0.86328 0-1.5625-0.69922-1.5625-1.5625v-46.875-0.035156-0.015625l0.007812-0.10938c0.003907-0.058594 0.015626-0.11719 0.027344-0.17578 0.003906-0.015624 0.011719-0.035156 0.015625-0.054687 0.035157-0.13281 0.085938-0.25781 0.15234-0.375l0.0625-0.10938c0.003906-0.003906 0.007813-0.007812 0.011719-0.015625 0.011718-0.011719 0.019531-0.027344 0.03125-0.039063 0.019531-0.027343 0.039062-0.054687 0.058594-0.078124 0.011718-0.015626 0.027343-0.027344 0.042968-0.042969 0.015625-0.019531 0.03125-0.035157 0.046875-0.054688l0.023438-0.019531c0.050781-0.050781 0.10547-0.097656 0.16016-0.13672 0.023437-0.019531 0.046875-0.035156 0.070313-0.050781 0.011718-0.003906 0.019531-0.011719 0.03125-0.015625 0.03125-0.019531 0.066406-0.039063 0.10156-0.058594 0.007812-0.007812 0.019531-0.011719 0.03125-0.015625 0.039062-0.019531 0.078125-0.039062 0.12109-0.054687h0.007812l36.984-14.227c-1.2617-1.1445-2.0508-2.793-2.0508-4.6289 0-0.86328 0.69922-1.5625 1.5625-1.5625s1.5625 0.69922 1.5625 1.5625c0 1.6406 1.2656 2.9805 2.8711 3.1094l0.25391-0.097656 0.25781 0.097656c1.6055-0.12891 2.8672-1.4688 2.8672-3.1094 0-0.99609-0.46094-1.8828-1.1914-2.457-0.67969-0.53516-1.5273-1.2305-2.2031-2.0586-0.64062-0.78516-1.2148-1.8047-1.2852-3.0469l-0.007812-0.25h-4.6875c-0.86328 0-1.5625-0.69922-1.5625-1.5625v-4.6875c0-0.86328 0.69922-1.5625 1.5625-1.5625zm-39.062 42.969c-0.42969 0-0.78125 0.35156-0.78125 0.78125v31.25c0 0.42969 0.35156 0.78125 0.78125 0.78125h65.625c0.42969 0 0.78125-0.35156 0.78125-0.78125v-31.25c0-0.42969-0.35156-0.78125-0.78125-0.78125zm0.60547-8.5938h64.418l-32.211-12.387z" fill-rule="evenodd"/>
<text x="0.0" y="117.5" font-size="5.0" font-weight="bold" font-family="Arbeit Regular, Helvetica, Arial-Unicode, Arial, Sans-serif" fill="#000000">Created by Arif Setyadi</text><text x="0.0" y="122.5" font-size="5.0" font-weight="bold" font-family="Arbeit Regular, Helvetica, Arial-Unicode, Arial, Sans-serif" fill="#000000">from Noun Project</text></svg>