<svg xmlns="http://www.w3.org/2000/svg" viewBox="0 0 512 639.0124999999999" x="0px" y="0px"><g data-name="Layer 2"><g data-name="repair shop"><path d="M502,250.57H10A10,10,0,0,1,.64,237.05l30.12-80.19a10,10,0,0,1,9.36-6.49h80.33a10,10,0,0,1,0,20H47.05l-22.61,60.2H487.56L465,170.37h-73.4a10,10,0,0,1,0-20h80.33a10,10,0,0,1,9.36,6.49l30.12,80.19A10,10,0,0,1,502,250.57Z"/><path d="M481.92,511.21a10,10,0,0,1-10-10V281.08a10,10,0,0,1,20,0V501.21A10,10,0,0,1,481.92,511.21Z"/><path d="M30.08,511.21a10,10,0,0,1-10-10V281.08a10,10,0,0,1,20,0V501.21A10,10,0,0,1,30.08,511.21Z"/><path d="M502,511.21H10a10,10,0,0,1,0-20H502a10,10,0,0,1,0,20Z"/><path d="M361.55,210.47H150.45a40,40,0,0,1-40-40V40a40,40,0,0,1,40-40h211.1a40,40,0,0,1,40,40V170.47A40,40,0,0,1,361.55,210.47ZM150.45,20a20,20,0,0,0-20,20V170.47a20,20,0,0,0,20,20h211.1a20,20,0,0,0,20-20V40a20,20,0,0,0-20-20Z"/><path d="M190.73,511.21H70.25a10,10,0,0,1-10-10V340.82a10,10,0,0,1,10-10H190.73a10,10,0,0,1,10,10V501.21A10,10,0,0,1,190.73,511.21Zm-110.48-20H180.73V350.82H80.25Z"/><path d="M441.76,471.11H230.9a10,10,0,0,1-10-10V320.77a10,10,0,0,1,10-10H441.76a10,10,0,0,1,10,10V461.11A10,10,0,0,1,441.76,471.11Zm-200.86-20H431.76V330.77H240.9Z"/><path d="M441.76,431H230.9a10,10,0,1,1,0-20H441.76a10,10,0,0,1,0,20Z"/><path d="M30.58,291.09h-.16A30.46,30.46,0,0,1,0,260.67v-20.1a10,10,0,0,1,10-10H51a10,10,0,0,1,10,10v20.1A30.45,30.45,0,0,1,30.58,291.09ZM20,250.57v10.1a10.43,10.43,0,0,0,10.42,10.42h.16A10.43,10.43,0,0,0,41,260.67v-10.1Z"/><path d="M71.5,291.09A30.52,30.52,0,0,1,41,260.62V240.57a10,10,0,0,1,10-10H92a10,10,0,0,1,10,10v20.05A30.52,30.52,0,0,1,71.5,291.09ZM61,250.57v10.05a10.5,10.5,0,0,0,21,0V250.57Z"/><path d="M112.58,291.09h-.16A30.46,30.46,0,0,1,82,260.67v-20.1a10,10,0,0,1,10-10h41a10,10,0,0,1,10,10v20.1A30.45,30.45,0,0,1,112.58,291.09ZM102,250.57v10.1a10.43,10.43,0,0,0,10.42,10.42h.16A10.43,10.43,0,0,0,123,260.67v-10.1Z"/><path d="M153.58,291.09h-.16A30.46,30.46,0,0,1,123,260.67v-20.1a10,10,0,0,1,10-10h41a10,10,0,0,1,10,10v20.1A30.45,30.45,0,0,1,153.58,291.09ZM143,250.57v10.1a10.43,10.43,0,0,0,10.42,10.42h.16A10.43,10.43,0,0,0,164,260.67v-10.1Z"/><path d="M194.5,291.09A30.52,30.52,0,0,1,164,260.62V240.57a10,10,0,0,1,10-10h41a10,10,0,0,1,10,10v20.05A30.52,30.52,0,0,1,194.5,291.09ZM184,250.57v10.05a10.5,10.5,0,0,0,21,0V250.57Z"/><path d="M235.58,291.09h-.16A30.46,30.46,0,0,1,205,260.67v-20.1a10,10,0,0,1,10-10h41a10,10,0,0,1,10,10v20.1A30.45,30.45,0,0,1,235.58,291.09ZM225,250.57v10.1a10.43,10.43,0,0,0,10.42,10.42h.16A10.43,10.43,0,0,0,246,260.67v-10.1Z"/><path d="M276.58,291.09h-.16A30.45,30.45,0,0,1,246,260.67v-20.1a10,10,0,0,1,10-10h41a10,10,0,0,1,10,10v20.1A30.45,30.45,0,0,1,276.58,291.09ZM266,250.57v10.1a10.43,10.43,0,0,0,10.42,10.42h.16A10.43,10.43,0,0,0,287,260.67v-10.1Z"/><path d="M317.5,291.09A30.52,30.52,0,0,1,287,260.62V240.57a10,10,0,0,1,10-10h41a10,10,0,0,1,10,10v20.05A30.52,30.52,0,0,1,317.5,291.09ZM307,250.57v10.05a10.5,10.5,0,0,0,21,0V250.57Z"/><path d="M358.58,291.09h-.16A30.45,30.45,0,0,1,328,260.67v-20.1a10,10,0,0,1,10-10h41a10,10,0,0,1,10,10v20.1A30.45,30.45,0,0,1,358.58,291.09ZM348,250.57v10.1a10.43,10.43,0,0,0,10.42,10.42h.16A10.43,10.43,0,0,0,369,260.67v-10.1Z"/><path d="M399.58,291.09h-.16A30.45,30.45,0,0,1,369,260.67v-20.1a10,10,0,0,1,10-10h41a10,10,0,0,1,10,10v20.1A30.45,30.45,0,0,1,399.58,291.09ZM389,250.57v10.1a10.43,10.43,0,0,0,10.42,10.42h.16A10.43,10.43,0,0,0,410,260.67v-10.1Z"/><path d="M440.5,291.09A30.52,30.52,0,0,1,410,260.62V240.57a10,10,0,0,1,10-10h41a10,10,0,0,1,10,10v20.05A30.52,30.52,0,0,1,440.5,291.09ZM430,250.57v10.05a10.5,10.5,0,0,0,21,0V250.57Z"/><path d="M481.58,291.09h-.16A30.45,30.45,0,0,1,451,260.67v-20.1a10,10,0,0,1,10-10h41a10,10,0,0,1,10,10v20.1A30.45,30.45,0,0,1,481.58,291.09ZM471,250.57v10.1a10.43,10.43,0,0,0,10.42,10.42h.16A10.43,10.43,0,0,0,492,260.67v-10.1Z"/><path d="M276.08,210.47H235.92a10,10,0,0,1-10-10V184.19c0-16.35-6.19-32.6-17.42-45.76A62.26,62.26,0,0,1,231,40.93a10,10,0,0,1,14,9.17V89.33a11,11,0,0,0,21.92,0V50.1a10,10,0,0,1,14-9.17,62.26,62.26,0,0,1,22.54,97.5c-11.23,13.16-17.42,29.41-17.42,45.76v16.28A10,10,0,0,1,276.08,210.47Zm-30.16-20h20.16v-6.28c0-21.1,7.89-42,22.21-58.74A42.25,42.25,0,0,0,287,69.14V89.33a31,31,0,0,1-61.92,0V69.14a42.25,42.25,0,0,0-1.33,56.31c14.32,16.77,22.21,37.64,22.21,58.74Z"/></g></g><text x="0" y="526.21" fill="#000000" font-size="5px" font-weight="bold" font-family="'Helvetica Neue', Helvetica, Arial-Unicode, Arial, Sans-serif">Created by iconade</text><text x="0" y="531.21" fill="#000000" font-size="5px" font-weight="bold" font-family="'Helvetica Neue', Helvetica, Arial-Unicode, Arial, Sans-serif">from the Noun Project</text></svg>