<svg xmlns="http://www.w3.org/2000/svg" version="1.1" viewBox="-5.0 -10.0 110.0 135.0">
 <path d="m82.812 50c0.86328 0 1.5625 0.69922 1.5625 1.5625v31.25c0 0.86328-0.69922 1.5625-1.5625 1.5625h-65.625c-0.86328 0-1.5625-0.69922-1.5625-1.5625v-31.25c0-0.86328 0.69922-1.5625 1.5625-1.5625zm-64.062 31.25h6.25v-28.125h-6.25zm9.375 0h6.25v-28.125h-6.25zm9.375 0h6.25v-28.125h-6.25zm9.375 0h6.25v-28.125h-6.25zm9.375 0h6.25v-28.125h-6.25zm9.375 0h6.25v-28.125h-6.25zm9.375 0h6.25v-28.125h-6.25z" fill-rule="evenodd"/>
 <path d="m56.25 7.8125c0.86328 0 1.5625 0.69922 1.5625 1.5625v4.6875c0 0.86328-0.69922 1.5625-1.5625 1.5625h-4.6875c0 0.37109 0.16016 0.79688 0.58984 1.3242 0.4375 0.53516 1.0391 1.0469 1.7109 1.5781 1.4492 1.1406 2.3867 2.918 2.3867 4.9102 0 1.8359-0.79297 3.4844-2.0508 4.6289l36.988 14.227c0.003906 0 0.007812 0.003906 0.011719 0.003906 0.035156 0.011719 0.0625 0.027344 0.09375 0.042969 0.023437 0.007812 0.042969 0.019531 0.0625 0.027344 0.019531 0.011718 0.035156 0.023437 0.054687 0.035156 0.027344 0.011718 0.050782 0.027344 0.074219 0.042968 0.011719 0.007813 0.027344 0.019532 0.039063 0.027344 0.15234 0.10938 0.28125 0.23828 0.38672 0.39062 0.011719 0.015625 0.023438 0.035157 0.035156 0.054688 0.019532 0.027343 0.035157 0.058593 0.054688 0.085937 0.035156 0.066406 0.0625 0.13672 0.089844 0.20703 0.007812 0.019531 0.015625 0.039062 0.019531 0.058593 0.007813 0.023438 0.015625 0.046875 0.023437 0.070313 0.003907 0.027344 0.011719 0.054687 0.019532 0.078125 0.003906 0.019531 0.003906 0.039062 0.007812 0.058593 0.007813 0.03125 0.011719 0.0625 0.015625 0.097657 0.003907 0.015625 0.003907 0.035156 0.003907 0.050781 0.003906 0.039062 0.007812 0.074219 0.007812 0.10938v0.015625 46.875c0 0.86328-0.69922 1.5625-1.5625 1.5625h-81.25c-0.86328 0-1.5625-0.69922-1.5625-1.5625v-46.926c0-0.023438 0.003906-0.046875 0.003906-0.074219 0.003906-0.015625 0.003906-0.035156 0.003906-0.050781 0.003907-0.035157 0.011719-0.066407 0.015626-0.097657l0.011718-0.058593c0.003906-0.023438 0.011719-0.050781 0.019532-0.078125 0.007812-0.023438 0.011718-0.046875 0.019531-0.070313 0.007812-0.019531 0.015625-0.039062 0.023437-0.058593 0.023438-0.070313 0.054688-0.14063 0.089844-0.20703 0.019531-0.027344 0.035156-0.058594 0.054688-0.085937 0.011718-0.019531 0.023437-0.039063 0.035156-0.054688 0.10156-0.15234 0.23047-0.28125 0.38672-0.39062 0.011719-0.007812 0.023438-0.019531 0.039063-0.027344 0.023437-0.015624 0.046875-0.03125 0.070313-0.042968 0.019531-0.011719 0.039062-0.023438 0.058593-0.035156 0.019531-0.007813 0.039063-0.019532 0.058594-0.027344 0.03125-0.015625 0.0625-0.03125 0.09375-0.042969 0.007813 0 0.011719-0.003906 0.015625-0.003906l36.988-14.227c-1.2617-1.1445-2.0508-2.793-2.0508-4.6289 0-0.86328 0.69922-1.5625 1.5625-1.5625s1.5625 0.69922 1.5625 1.5625c0 1.6406 1.2617 2.9805 2.8672 3.1094l0.25781-0.097656 0.25391 0.097656c1.6094-0.12891 2.8711-1.4688 2.8711-3.1094 0-0.99609-0.46484-1.8828-1.1914-2.457-0.68359-0.53516-1.5312-1.2305-2.207-2.0586-0.67969-0.83984-1.2891-1.9414-1.2891-3.2969h-4.6875c-0.86328 0-1.5625-0.69922-1.5625-1.5625v-4.6875c0-0.86328 0.69922-1.5625 1.5625-1.5625zm-45.312 81.25h78.125v-43.75h-78.125zm6.8555-46.875h64.414l-32.207-12.387zm27.52-29.688h9.375v-1.5625h-9.375z" fill-rule="evenodd"/>
<text x="0.0" y="117.5" font-size="5.0" font-weight="bold" font-family="Arbeit Regular, Helvetica, Arial-Unicode, Arial, Sans-serif" fill="#000000">Created by Arif Setyadi</text><text x="0.0" y="122.5" font-size="5.0" font-weight="bold" font-family="Arbeit Regular, Helvetica, Arial-Unicode, Arial, Sans-serif" fill="#000000">from Noun Project</text></svg>