<svg width="100" height="125" xmlns="http://www.w3.org/2000/svg" data-name="Layer 1">

 <g>
  <title>Layer 1</title>
  <path fill="#ffffff" id="svg_1" d="m33.55,47.79l-2.34,-5.85c-2.09,0.42 -4.22,0.76 -6.31,1.18c0.78,2 1.55,3.9 2.33,5.86c2.1,-0.43 4.22,-0.77 6.32,-1.19z"/>
  <path fill="#ffffff" id="svg_2" d="m72.77,49c0.78,-2 1.55,-3.91 2.33,-5.86c-2.09,-0.42 -4.22,-0.76 -6.31,-1.18l-2.34,5.85c2.1,0.4 4.22,0.74 6.32,1.19z"/>
  <path fill="#ffffff" id="svg_3" d="m10.07,42.61l7,17.56a1,1 0 0 0 0.67,0.59l0.23,0a1,1 0 0 0 0.65,-0.25c4,-3.49 9,-4.39 14.27,-5.34c4.9,-0.88 10,-1.8 14.15,-5l1.96,4.83l-7.18,17.89a1,1 0 0 0 0.54,1.26a0.92,0.92 0 0 0 0.36,0.07a1,1 0 0 0 0.91,-0.61l6.37,-16l6.37,16a1,1 0 0 0 0.91,0.61a0.92,0.92 0 0 0 0.36,-0.07a1,1 0 0 0 0.54,-1.26l-7.13,-17.89l1.95,-4.75c4.2,3.15 9.25,4.07 14.15,5c5.29,0.95 10.29,1.85 14.27,5.34a1,1 0 0 0 0.65,0.25l0.23,0a1,1 0 0 0 0.67,-0.59l7,-17.56a1,1 0 0 0 -0.26,-1.1c-4.4,-3.85 -9.9,-4.84 -15.22,-5.8c-5.06,-0.91 -9.85,-1.78 -13.74,-4.91l0.5,-1.26a1.87,1.87 0 0 0 1.46,-1.15l0,0a1.91,1.91 0 1 0 -3.58,-1.47a1.87,1.87 0 0 0 0,1.45a1.77,1.77 0 0 0 0.24,0.4l-9.37,23.53l-9.39,-23.55a2.55,2.55 0 0 0 0.24,-0.39a1.9,1.9 0 0 0 0,-1.46a1.91,1.91 0 1 0 -3.54,1.41l0,0a1.89,1.89 0 0 0 1,1a2.13,2.13 0 0 0 0.45,0.13l0.49,1.24c-3.89,3.13 -8.68,4 -13.74,4.91c-5.32,1 -10.82,1.95 -15.22,5.8a1,1 0 0 0 -0.22,1.14zm45.59,0.83a19.15,19.15 0 0 0 4.69,2.64l2.33,-5.85a18.91,18.91 0 0 1 -4.68,-2.64l0,0l2,-4.89a20.1,20.1 0 0 0 4.71,2.58l-2,5a37.09,37.09 0 0 0 6.11,1.71c0.66,-1.65 1.31,-3.3 2,-4.94c1.12,0.23 5.33,1 6.31,1.19c-0.66,1.64 -1.31,3.29 -2,4.93a35.87,35.87 0 0 1 6.11,1.71l2,-4.95a17.75,17.75 0 0 1 4.68,2.66l-2,4.93a18.91,18.91 0 0 0 -4.68,-2.64l-2.34,5.85a19.48,19.48 0 0 1 4.69,2.64l-2,4.9a19.91,19.91 0 0 0 -4.71,-2.58l2,-5a35.74,35.74 0 0 0 -6.1,-1.7c-0.66,1.64 -1.32,3.29 -2,4.93c-1.12,-0.23 -5.34,-1 -6.31,-1.19l2,-4.93a34.87,34.87 0 0 1 -6.1,-1.71l-2,5a17.54,17.54 0 0 1 -4.67,-2.66l1.96,-4.99zm-38.84,-3.56l2,4.95a35.87,35.87 0 0 1 6.11,-1.71c-0.66,-1.64 -1.31,-3.29 -2,-4.93c1,-0.19 5.19,-1 6.31,-1.19c0.66,1.64 1.31,3.29 2,4.94a37.09,37.09 0 0 0 6.11,-1.71l-2,-5a20.1,20.1 0 0 0 4.71,-2.58l2,4.9a18.91,18.91 0 0 1 -4.68,2.64l2.33,5.85a19.15,19.15 0 0 0 4.69,-2.64l2,4.93a17.54,17.54 0 0 1 -4.77,2.67l-2,-5a34.87,34.87 0 0 1 -6.1,1.71l2,4.93c-1,0.19 -5.19,1 -6.31,1.19c-0.65,-1.64 -1.31,-3.29 -2,-4.93a35.74,35.74 0 0 0 -6.1,1.7l2,5a19.91,19.91 0 0 0 -4.71,2.58l-2,-4.9a19.48,19.48 0 0 1 4.69,-2.64l-2.34,-5.85a18.91,18.91 0 0 0 -4.68,2.64l-2,-4.93a17.75,17.75 0 0 1 4.74,-2.62z"/>
 </g>
</svg>