<svg width="110" height="135" xmlns="http://www.w3.org/2000/svg" version="1.1">

 <g>
  <title>Layer 1</title>
  <path fill="#ffffff" id="svg_1" fill-rule="evenodd" d="m11.805,17.562l0,64.875l-5.5547,0c-0.86328,0 -1.5625,0.69922 -1.5625,1.5625l0,9.75c0,0.86328 0.69922,1.5625 1.5625,1.5625l87.5,0c0.86328,0 1.5625,-0.69922 1.5625,-1.5625l0,-9.75c0,-0.86328 -0.69922,-1.5625 -1.5625,-1.5625l-5.5547,0l0,-64.875l5.5547,0c0.86328,0 1.5625,-0.69922 1.5625,-1.5625l0,-9.75c0,-0.86328 -0.69922,-1.5625 -1.5625,-1.5625l-87.5,0c-0.86328,0 -1.5625,0.69922 -1.5625,1.5625l0,9.75c0,0.86328 0.69922,1.5625 1.5625,1.5625l5.5547,0zm80.383,68l-84.375,0l0,6.625l84.375,0l0,-6.625zm-77.258,-68l0,64.875l5.9023,0l0,-64.875l-5.9023,0zm38.02,64.875l0,-64.875l-5.9023,0l0,64.875l5.9023,0zm3.125,-24.305l0,24.305l19.949,0c-0.25781,-6.5352 -2.9648,-12.75 -7.6094,-17.395c-3.4219,-3.4258 -7.7031,-5.7969 -12.34,-6.9102l0.0004,0.0002zm23.094,-40.57l0,64.875l5.9023,0l0,-64.875l-5.9023,0zm-35.246,40.57c-4.6328,1.1133 -8.9141,3.4844 -12.336,6.9102c-4.6445,4.6445 -7.3555,10.859 -7.6094,17.395l19.945,0l0.0004,-24.3052zm0,-33.32l0,-7.25l-19.965,0l0,52.762c1.3789,-2.7422 3.2031,-5.2734 5.4141,-7.4883c3.543,-3.543 7.9062,-6.0781 12.641,-7.4297c-5.2852,-2.8516 -8.8789,-8.4375 -8.8789,-14.855c0,-7.168 4.4805,-13.297 10.789,-15.738l-0.0002,-0.001zm32.121,45.512l0,-52.762l-19.969,0l0,7.25c6.3125,2.4414 10.793,8.5703 10.793,15.738c0,6.418 -3.5938,12.004 -8.8789,14.855c4.7344,1.3516 9.0938,3.8867 12.637,7.4297c2.2109,2.2148 4.0352,4.7461 5.418,7.4883l-0.0001,0.001zm-19.969,-42.102l0,24.656c4.543,-2.2461 7.668,-6.9258 7.668,-12.328c0,-5.4023 -3.125,-10.086 -7.668,-12.328zm-12.152,0c-4.5391,2.2422 -7.6641,6.9258 -7.6641,12.328c0,5.4023 3.125,10.082 7.6641,12.328l0,-24.656zm48.266,-20.41l0,6.625l-84.375,0l0,-6.625l84.375,0z"/>
 </g>
</svg>