<svg width="100" height="125" xmlns="http://www.w3.org/2000/svg" data-name="Layer 1">
 <title>Artboard 26</title>

 <g>
  <title>Layer 1</title>
  <path fill="#ffffff" id="svg_1" d="m57.51,18a12.39,12.39 0 0 0 -7.51,2.52a12.48,12.48 0 0 0 -20,9.48a12.48,12.48 0 0 0 -9.5,20a12.48,12.48 0 0 0 9.5,20a12.48,12.48 0 0 0 20,9.5a12.48,12.48 0 0 0 20,-9.5a12.48,12.48 0 0 0 9.5,-20a12.48,12.48 0 0 0 -9.5,-20a12.49,12.49 0 0 0 -12.49,-12zm-14.44,8a4.75,4.75 0 0 1 2.72,1.41l3.13,3.13a1.53,1.53 0 0 0 2.17,0l3.13,-3.13a4.75,4.75 0 0 1 2.71,-1.41a4.48,4.48 0 0 1 3.81,7.56l-0.06,0.05l-10.1,10.1a0.81,0.81 0 0 1 -1.15,0l-10.1,-10.1l-0.06,-0.05a4.48,4.48 0 0 1 3.8,-7.56zm-9.41,34.68l-0.05,0.06a4.48,4.48 0 0 1 -7.61,-3.81a4.74,4.74 0 0 1 1.41,-2.72l3.13,-3.13a1.53,1.53 0 0 0 0,-2.16l-3.13,-3.13a4.75,4.75 0 0 1 -1.41,-2.72a4.48,4.48 0 0 1 7.56,-3.81l0.05,0.06l10.1,10.11a0.81,0.81 0 0 1 0,1.15l-10.05,10.1zm23.27,13.32a4.75,4.75 0 0 1 -2.72,-1.41l-3.13,-3.13a1.53,1.53 0 0 0 -2.17,0l-3.13,3.13a4.75,4.75 0 0 1 -2.71,1.41a4.48,4.48 0 0 1 -3.81,-7.56l0.06,-0.05l10.1,-10.1a0.81,0.81 0 0 1 1.15,0l10.1,10.1l0.06,0.05a4.48,4.48 0 0 1 -3.8,7.56zm17.07,-30.93a4.74,4.74 0 0 1 -1.41,2.72l-3.13,3.13a1.53,1.53 0 0 0 0,2.16l3.13,3.13a4.75,4.75 0 0 1 1.41,2.72a4.48,4.48 0 0 1 -7.56,3.81l-0.05,-0.06l-10.15,-10.11a0.81,0.81 0 0 1 0,-1.15l10.1,-10.1l0.05,-0.06a4.48,4.48 0 0 1 7.61,3.81z"/>
 </g>
</svg>