<svg xmlns="http://www.w3.org/2000/svg" viewBox="0 0 60 75" x="0px" y="0px"><path d="M57,9H55V7a2,2,0,0,0-2-2V3a3,3,0,0,0-6,0V5a2,2,0,0,0-2,2V9H35V7a2,2,0,0,0-2-2V3a3,3,0,0,0-6,0V5a2,2,0,0,0-2,2V9H15V7a2,2,0,0,0-2-2V3A3,3,0,0,0,7,3V5A2,2,0,0,0,5,7V9H3a3,3,0,0,0-3,3v4a3,3,0,0,0,2,2.816V57a3,3,0,0,0,3,3H55a3,3,0,0,0,3-3V18.816A3,3,0,0,0,60,16V12A3,3,0,0,0,57,9ZM49,3a1,1,0,0,1,2,0V5H49ZM47,7h6V9H47ZM29,3a1,1,0,0,1,2,0V5H29ZM27,7h6V9H27ZM9,3a1,1,0,0,1,2,0V5H9ZM7,7h6V9H7ZM21,58H9V26a1,1,0,0,1,1-1H20a1,1,0,0,1,1,1Zm35-1a1,1,0,0,1-1,1H23V26a3,3,0,0,0-3-3H10a3,3,0,0,0-3,3V58H5a1,1,0,0,1-1-1V19H56Zm2-41a1,1,0,0,1-1,1H3a1,1,0,0,1-1-1V12a1,1,0,0,1,1-1H57a1,1,0,0,1,1,1Z"/><path d="M30,47H50a3,3,0,0,0,3-3V26a3,3,0,0,0-3-3H30a3,3,0,0,0-3,3V44A3,3,0,0,0,30,47ZM29,26a1,1,0,0,1,1-1H50a1,1,0,0,1,1,1V44a1,1,0,0,1-1,1H30a1,1,0,0,1-1-1Z"/><path d="M37,36h4.276l-3.144,5.5a1,1,0,0,0,.372,1.364,1,1,0,0,0,1.364-.372l4-7A1,1,0,0,0,43,34H38.724l3.144-5.5a1,1,0,0,0-1.736-.992l-4,7A1,1,0,0,0,37,36Z"/><text x="0" y="75" fill="#000000" font-size="5px" font-weight="bold" font-family="'Helvetica Neue', Helvetica, Arial-Unicode, Arial, Sans-serif">Created by Juicy Fish</text><text x="0" y="80" fill="#000000" font-size="5px" font-weight="bold" font-family="'Helvetica Neue', Helvetica, Arial-Unicode, Arial, Sans-serif">from the Noun Project</text></svg>