<svg xmlns="http://www.w3.org/2000/svg" viewBox="0 0 60 75" x="0px" y="0px"><rect x="27" y="7" width="6" height="2"/><rect x="47" y="7" width="6" height="2"/><rect x="7" y="7" width="6" height="2"/><path d="M29,3V5h2V3a1,1,0,0,0-2,0Z"/><path d="M50,2a1,1,0,0,0-1,1V5h2V3A1,1,0,0,0,50,2Z"/><path d="M10,2A1,1,0,0,0,9,3V5h2V3A1,1,0,0,0,10,2Z"/><rect x="2" y="11" width="56" height="6" rx="1"/><path d="M4,57a1,1,0,0,0,1,1H7V26a3,3,0,0,1,3-3H20a3,3,0,0,1,3,3V58H55a1,1,0,0,0,1-1V19H4ZM27,26a3,3,0,0,1,3-3H50a3,3,0,0,1,3,3V44a3,3,0,0,1-3,3H30a3,3,0,0,1-3-3Z"/><path d="M20,25H10a1,1,0,0,0-1,1V58H21V26A1,1,0,0,0,20,25Z"/><path d="M30,45H50a1,1,0,0,0,1-1V26a1,1,0,0,0-1-1H30a1,1,0,0,0-1,1V44A1,1,0,0,0,30,45Zm6.132-10.5,4-7a1,1,0,0,1,1.736.992L38.724,34H43a1,1,0,0,1,.868,1.5l-4,7a1,1,0,1,1-1.736-.992L41.276,36H37a1,1,0,0,1-.868-1.5Z"/><text x="0" y="75" fill="#000000" font-size="5px" font-weight="bold" font-family="'Helvetica Neue', Helvetica, Arial-Unicode, Arial, Sans-serif">Created by Juicy Fish</text><text x="0" y="80" fill="#000000" font-size="5px" font-weight="bold" font-family="'Helvetica Neue', Helvetica, Arial-Unicode, Arial, Sans-serif">from the Noun Project</text></svg>