<svg xmlns="http://www.w3.org/2000/svg" xmlns:xlink="http://www.w3.org/1999/xlink" version="1.1" x="0px" y="0px" viewBox="0 0 66 82.5" style="enable-background:new 0 0 66 66;" xml:space="preserve"><path d="M63.91,58.45h-3.47v-2.22l3.57-1.69c0.29-0.14,0.48-0.43,0.48-0.76V29.85c0-0.32-0.19-0.62-0.48-0.76l-3.57-1.69v-1.14  c0-1.52-1.24-2.75-2.75-2.75h-8.56v-3.12c0-2.05-1.67-3.71-3.71-3.71h-4.11v-4.62h12.22v0.9c0,0.46,0.38,0.84,0.84,0.84h3.36  c0.46,0,0.84-0.38,0.84-0.84V2.39c0-0.46-0.38-0.84-0.84-0.84h-3.36c-0.46,0-0.84,0.38-0.84,0.84v1.21H39.99  c-3.93,0-7.12,3.19-7.12,7.12v0.44H14.86c-2.05,0-3.71,1.67-3.71,3.71v8.62H8.31c-1.52,0-2.75,1.24-2.75,2.75v1.14l-3.57,1.69  c-0.29,0.14-0.48,0.43-0.48,0.76v23.93c0,0.32,0.19,0.62,0.48,0.76l3.57,1.69v2.22H2.09c-0.46,0-0.84,0.38-0.84,0.84v4.32  c0,0.46,0.38,0.84,0.84,0.84h61.82c0.46,0,0.84-0.38,0.84-0.84v-4.32C64.75,58.82,64.37,58.45,63.91,58.45z M62.82,30.38v22.87  l-2.38,1.12V29.26L62.82,30.38z M57.69,25.18c0.59,0,1.08,0.48,1.08,1.08v1.68v27.76v2.75h-9.64V25.18H57.69z M47.45,20.38v38.07  H18.55V20.38c0-1.12,0.91-2.04,2.04-2.04H33.7h6.76h4.95C46.54,18.35,47.45,19.26,47.45,20.38z M55.2,3.23h1.69v8.88H55.2v-0.9V4.45  V3.23z M34.54,10.73c0-3,2.44-5.44,5.44-5.44h13.54v5.09H40.47c-0.46,0-0.84,0.38-0.84,0.84v5.46h-5.09V10.73z M12.82,14.88  c0-1.12,0.91-2.04,2.04-2.04h18.01v3.82H20.58c-2.05,0-3.71,1.67-3.71,3.71v3.12h-4.05V14.88z M3.18,53.25V30.38l2.38-1.12v25.11  L3.18,53.25z M7.23,55.69V27.93v-1.68c0-0.59,0.48-1.08,1.08-1.08h8.56v33.27H7.23V55.69z M63.07,62.77H2.93v-2.64h60.14V62.77z"/><path d="M10.03,30.6h3.91c0.46,0,0.84-0.38,0.84-0.84s-0.38-0.84-0.84-0.84h-3.91c-0.46,0-0.84,0.38-0.84,0.84S9.57,30.6,10.03,30.6  z"/><path d="M13.94,34.17h-3.91c-0.46,0-0.84,0.38-0.84,0.84c0,0.46,0.38,0.84,0.84,0.84h3.91c0.46,0,0.84-0.38,0.84-0.84  C14.78,34.54,14.4,34.17,13.94,34.17z"/><path d="M13.94,39.41h-3.91c-0.46,0-0.84,0.38-0.84,0.84c0,0.46,0.38,0.84,0.84,0.84h3.91c0.46,0,0.84-0.38,0.84-0.84  C14.78,39.79,14.4,39.41,13.94,39.41z"/><path d="M13.94,44.65h-3.91c-0.46,0-0.84,0.38-0.84,0.84c0,0.46,0.38,0.84,0.84,0.84h3.91c0.46,0,0.84-0.38,0.84-0.84  C14.78,45.03,14.4,44.65,13.94,44.65z"/><path d="M52.06,30.6h3.9c0.46,0,0.84-0.38,0.84-0.84s-0.38-0.84-0.84-0.84h-3.9c-0.46,0-0.84,0.38-0.84,0.84S51.6,30.6,52.06,30.6z"/><path d="M52.06,35.84h3.9c0.46,0,0.84-0.38,0.84-0.84c0-0.46-0.38-0.84-0.84-0.84h-3.9c-0.46,0-0.84,0.38-0.84,0.84  C51.22,35.47,51.6,35.84,52.06,35.84z"/><path d="M52.06,41.09h3.9c0.46,0,0.84-0.38,0.84-0.84c0-0.46-0.38-0.84-0.84-0.84h-3.9c-0.46,0-0.84,0.38-0.84,0.84  C51.22,40.71,51.6,41.09,52.06,41.09z"/><path d="M55.97,44.65h-3.9c-0.46,0-0.84,0.38-0.84,0.84c0,0.46,0.38,0.84,0.84,0.84h3.9c0.46,0,0.84-0.38,0.84-0.84  C56.81,45.03,56.43,44.65,55.97,44.65z"/><path d="M21.83,21.23c-0.11,0-0.22,0.02-0.32,0.06c-0.21,0.08-0.37,0.25-0.45,0.45c-0.04,0.1-0.06,0.21-0.06,0.32v21.47c0,0,0,0,0,0  c0,0.11,0.02,0.22,0.06,0.32c0.04,0.1,0.1,0.19,0.17,0.26c0,0,0,0.01,0.01,0.01c0.01,0.01,0.02,0.01,0.03,0.02  c0.07,0.07,0.15,0.12,0.24,0.16c0.1,0.04,0.21,0.07,0.32,0.07c0,0,0,0,0,0H43.3c0,0,0,0,0,0c0.11,0,0.22-0.02,0.32-0.07  c0.09-0.04,0.17-0.1,0.24-0.16c0.01-0.01,0.02-0.01,0.03-0.02c0,0,0-0.01,0.01-0.01c0.07-0.08,0.13-0.16,0.17-0.26  c0.04-0.1,0.06-0.21,0.06-0.32c0,0,0,0,0,0V22.07c0-0.11-0.02-0.22-0.06-0.32c-0.09-0.21-0.25-0.37-0.45-0.45  c-0.1-0.04-0.21-0.06-0.32-0.06H21.83z M31.08,34.27c-0.39-0.39-0.61-0.91-0.61-1.47c0-0.56,0.21-1.06,0.62-1.47  c0.38-0.39,0.92-0.61,1.47-0.61c0.55,0,1.08,0.22,1.47,0.62c0.4,0.4,0.62,0.91,0.62,1.47c0,0.56-0.22,1.08-0.62,1.48c0,0,0,0,0,0  c-0.68,0.69-1.82,0.78-2.62,0.25C31.29,34.46,31.18,34.37,31.08,34.27z M34.56,29.62c-0.59-0.37-1.28-0.59-1.99-0.59  c-0.71,0-1.41,0.21-2,0.59l-6.72-6.72h17.42L34.56,29.62z M29.38,30.81c-0.38,0.59-0.59,1.28-0.59,1.99c0,0.73,0.21,1.41,0.58,2  l-6.72,6.72V24.09L29.38,30.81z M30.57,35.98c0.59,0.38,1.28,0.58,2,0.58c0.25,0,0.5-0.02,0.74-0.07c0.45-0.09,0.87-0.27,1.25-0.51  l6.71,6.71H23.85L30.57,35.98z M35.74,34.8c0.07-0.11,0.12-0.22,0.18-0.33c0.04-0.08,0.09-0.14,0.12-0.22  c0.07-0.17,0.11-0.34,0.16-0.52c0.02-0.06,0.04-0.12,0.06-0.19c0.05-0.24,0.07-0.49,0.07-0.75c0-0.44-0.09-0.87-0.24-1.28  c-0.02-0.05-0.03-0.1-0.05-0.15c-0.02-0.05-0.05-0.09-0.07-0.13c-0.07-0.15-0.14-0.29-0.23-0.43l6.72-6.72v17.42L35.74,34.8z"/><path d="M43.3,47.37H21.83c-0.46,0-0.84,0.38-0.84,0.84c0,0.46,0.38,0.84,0.84,0.84H43.3c0.46,0,0.84-0.38,0.84-0.84  C44.14,47.74,43.76,47.37,43.3,47.37z"/><path d="M43.3,52.03H21.83c-0.46,0-0.84,0.38-0.84,0.84c0,0.46,0.38,0.84,0.84,0.84H43.3c0.46,0,0.84-0.38,0.84-0.84  C44.14,52.41,43.76,52.03,43.3,52.03z"/><text x="0" y="81" fill="#000000" font-size="5px" font-weight="bold" font-family="'Helvetica Neue', Helvetica, Arial-Unicode, Arial, Sans-serif">Created by Design Circle</text><text x="0" y="86" fill="#000000" font-size="5px" font-weight="bold" font-family="'Helvetica Neue', Helvetica, Arial-Unicode, Arial, Sans-serif">from the Noun Project</text></svg>